PathFileType	4	(X/Y/Z)	..\data\2015043\dynamic\2015043_C5_05.trc
DataRate	CameraRate	NumFrames	NumMarkers	Units	OrigDataRate	OrigDataStartFrame	OrigNumFrames
100.000000	100.000000	4	52	mm	100.000000	146	167
Frame#	Time	L_IAS			L_IPS			R_IPS			R_IAS			L_FTC			L_FLE			L_FME			L_FAX			L_TTC			L_FAL			L_TAM			L_FCC			L_FM1			L_FM2			L_FM5			R_FTC			R_FLE			R_FME			R_FAX			R_TTC			R_FAL			R_TAM			R_FCC			R_FM1			R_FM2			R_FM5			CV7			TV10			SXS			SJN			L_SIA			L_SRS			L_SAA			L_SAE			L_HLE			L_HME			L_UOA			L_RSP			L_UHE			L_HM2			L_HM5			R_SIA			R_SRS			R_SAA			R_SAE			R_HLE			R_HME			R_UOA			R_RSP			R_UHE			R_HM2			R_HM5			
		X1	Y1	Z1	X2	Y2	Z2	X3	Y3	Z3	X4	Y4	Z4	X5	Y5	Z5	X6	Y6	Z6	X7	Y7	Z7	X8	Y8	Z8	X9	Y9	Z9	X10	Y10	Z10	X11	Y11	Z11	X12	Y12	Z12	X13	Y13	Z13	X14	Y14	Z14	X15	Y15	Z15	X16	Y16	Z16	X17	Y17	Z17	X18	Y18	Z18	X19	Y19	Z19	X20	Y20	Z20	X21	Y21	Z21	X22	Y22	Z22	X23	Y23	Z23	X24	Y24	Z24	X25	Y25	Z25	X26	Y26	Z26	X27	Y27	Z27	X28	Y28	Z28	X29	Y29	Z29	X30	Y30	Z30	X31	Y31	Z31	X32	Y32	Z32	X33	Y33	Z33	X34	Y34	Z34	X35	Y35	Z35	X36	Y36	Z36	X37	Y37	Z37	X38	Y38	Z38	X39	Y39	Z39	X40	Y40	Z40	X41	Y41	Z41	X42	Y42	Z42	X43	Y43	Z43	X44	Y44	Z44	X45	Y45	Z45	X46	Y46	Z46	X47	Y47	Z47	X48	Y48	Z48	X49	Y49	Z49	X50	Y50	Z50	X51	Y51	Z51	X52	Y52	Z52	

147	1.46	598.3522338867189	1000.192138671875	139.8679962158204	419.611053466797	1017.305297851563	214.2987518310548	425.2178649902344	1022.394714355469	311.9526977539064	604.6667480468751	1002.285827636719	381.622039794922	518.0765991210939	908.2898559570315	82.65283203125007	676.3947143554689	513.6305541992189	71.62765502929697	711.0149536132814	500.9056701660157	190.6303558349611	651.9074707031251	449.3516540527345	71.28248596191416	719.2680053710939	419.4310302734376	107.7148208618165	502.1014404296876	141.5373992919922	140.9674377441407	563.0180053710939	131.674560546875	213.7755432128907	454.3721618652345	103.6202850341797	199.6646423339845	639.6401977539064	26.48031806945801	165.1365203857423	624.1563110351564	45.99493408203126	107.683090209961	567.3821411132814	48.90852355957033	80.1090621948243	495.7546997070313	911.7784423828127	426.9036865234377	500.0655212402344	484.6092834472657	383.8555297851564	520.6984863281251	483.5739135742189	262.0791015625001	482.1752014160157	417.1082763671876	383.8715820312501	552.6292724609376	406.1489257812501	329.6400756835939	420.9329528808594	77.07371520996095	314.6996459960939	469.5713500976563	95.7040481567383	232.2644958496095	380.6011962890625	32.64738845825196	258.188934326172	588.5289916992189	23.0864429473877	268.7778930664064	577.0408935546876	31.23612976074219	325.386688232422	512.2437744140626	20.15777206420899	370.0360412597657	486.3664550781251	1519.76171875	273.0562744140626	425.7691650390626	1290.060180664063	270.1791992187501	658.6974487304689	1287.139404296875	261.4785766601564	604.9180297851564	1437.891357421875	269.6682434082032	395.060028076172	1320.421020507813	178.8140258789063	425.7308349609376	1447.139038085938	182.8329315185548	476.7059326171876	1455.876342773438	91.70370483398445	515.6400756835939	1458.29150390625	68.05934143066413	472.8876953125001	1135.4814453125	-33.49929809570308	440.8704833984376	1116.94091796875	48.88826370239265	432.4507751464845	1102.129150390625	-11.82155799865718	599.8549804687501	893.6140747070315	8.709905624389723	562.0986328125001	884.9541625976565	-57.42005920410151	637.4199829101564	806.7933349609377	3.251137256622394	553.0084228515626	813.2719726562502	-58.46986770629877	399.9342651367188	1319.21484375	351.7542114257814	429.2230834960938	1440.843627929688	354.2472229003907	468.6634216308594	1441.974487304688	450.7498779296877	501.8033142089844	1435.970581054688	485.1445617675783	477.1042175292969	1103.651489257813	539.1311645507815	452.1951293945313	1095.917602539063	470.9141845703127	448.4368591308594	1071.319946289063	505.476287841797	634.27392578125	877.6278076171877	497.9265441894533	564.865478515625	857.6184082031252	537.095153808594	674.3712158203125	798.4744262695315	499.8679199218752	578.4347534179688	785.344421386719	539.8643798828127	
148	1.47	609.4494628906251	999.4477539062502	140.4824218750001	430.1182861328126	1016.440612792969	213.8700103759767	435.2799377441407	1021.615966796875	311.4884338378907	614.3408813476564	1001.143615722656	382.2763977050782	529.3481445312501	907.6226806640627	82.83038330078134	690.7409057617189	513.6085815429689	72.81222534179697	725.2494506835939	501.7391662597657	191.7631683349611	668.7653198242189	447.7855224609376	72.29216003417979	736.8757934570314	421.1178283691407	108.9468917846681	537.3725585937501	131.14013671875	139.9101715087891	598.4497680664064	124.4190673828125	212.8667297363283	491.8092041015626	90.24478149414064	198.4199981689454	681.4642944335939	24.51051902770997	163.5133056640626	664.8594360351564	43.41411972045899	106.1346359252931	608.0509643554689	43.2570915222168	78.61356353759774	504.4792175292969	910.8194580078127	426.6248779296877	503.5674438476563	484.2439575195314	383.4189453125001	524.7438354492189	483.0680236816407	261.664520263672	484.9857788085938	416.9156799316407	383.3230895996095	555.3634643554689	405.3135375976564	329.2286987304689	421.4361572265626	77.37489318847658	313.5991210937501	470.2737731933595	95.54373931884767	231.2455596923829	381.21484375	32.90781784057618	256.7689819335939	588.8502197265626	22.92467880249024	268.8197021484376	577.1304321289064	31.1772804260254	325.3367919921876	512.1326904296876	20.40172195434571	369.566375732422	498.1364440917969	1518.777954101563	272.8471984863282	436.8444824218751	1289.455810546875	270.1876525878907	670.0314331054689	1285.966064453125	261.9305725097657	616.4602050781251	1436.804931640625	269.7511596679689	406.0362548828126	1319.71044921875	179.3350219726563	437.3458251953126	1446.32568359375	183.0240478515626	488.2396545410157	1454.699951171875	91.95647430419929	527.0929565429689	1456.88671875	68.22653198242196	480.8069763183595	1134.669311523438	-32.99168014526362	449.3880615234376	1116.314331054688	49.63559341430671	440.3539428710939	1101.785278320313	-10.97680473327632	604.8870849609376	890.960632324219	6.981276035308913	566.1285400390626	883.0028076171877	-58.76558685302729	641.2783813476564	803.7100219726565	0.5988748669625115	555.9729003906251	811.4704589843752	-59.92005157470697	411.2202758789063	1318.761596679688	351.9409790039064	440.6540527343751	1440.2841796875	354.302947998047	480.1122131347657	1441.264770507813	450.8943786621095	513.3572998046875	1435.272094726563	485.242156982422	490.6156616210938	1102.8935546875	540.882507324219	465.2812805175782	1094.728759765625	472.9433898925783	462.1737060546876	1069.901245117188	507.648651123047	651.1946411132812	879.5578613281252	498.2701416015627	582.6614990234375	858.2806396484377	538.0434570312502	692.9117431640625	801.222839355469	499.8848571777345	597.6226196289062	786.2695922851565	540.6927490234377	
149	1.48	620.5319213867189	998.4317626953127	140.9866027832032	440.6387023925782	1015.25	213.4011077880861	445.3835449218751	1020.551818847656	310.9566955566407	624.0445556640626	999.8425903320315	382.8230895996095	540.5675659179689	906.5834960937502	82.97999572753915	704.3333740234376	513.0220336914064	74.09111785888682	738.6405639648439	501.9053955078126	192.9531250000001	685.0173950195314	445.8391418457032	73.28825378417979	753.7551269531251	422.4629516601564	110.2760314941407	573.3673095703126	121.3490524291992	138.6249542236329	634.1491088867189	117.8399124145508	211.9121246337892	530.0208740234376	77.62133026123048	196.8655242919923	723.4029541015626	23.65072059631348	162.2744445800782	705.9084472656251	41.80916976928712	104.8821563720704	649.3926391601564	38.51388549804688	77.24341583251963	513.3392333984376	909.667907714844	426.3120422363283	507.3375549316407	483.7881469726564	382.9325561523439	528.9289550781251	482.5026245117189	261.1788940429689	488.0488281250001	416.6513671875001	382.7290344238282	558.3005371093751	404.3637695312501	328.726287841797	421.9516601562501	77.65477752685548	312.491912841797	470.9332580566407	95.31707000732423	230.1920471191407	381.7492370605469	33.18236160278321	255.3924713134767	589.1119384765626	22.72918891906739	268.825897216797	577.1937866210939	31.11204910278321	325.2493286132814	511.9974365234376	20.64551162719727	369.0741577148439	510.0793457031251	1517.504028320313	272.4043579101564	447.9296569824219	1288.656860351563	270.0643920898439	681.2706909179689	1284.494018554688	262.308807373047	628.0549316406251	1435.486938476563	269.7632751464845	417.0894470214845	1318.821166992188	179.711395263672	449.028533935547	1445.326782226563	183.0838165283204	499.8925170898439	1453.310668945313	92.09874725341804	538.6799316406251	1455.267211914063	68.30403900146493	488.9767150878907	1133.646484375	-32.47583770751948	458.1192016601564	1115.469604492188	50.37033462524421	448.4903564453126	1101.214111328125	-10.13105487823481	610.1817626953126	888.2022705078127	5.388050556182937	570.4999389648439	880.938415527344	-60.00539016723627	645.3777465820314	800.5372314453127	-1.839735984802167	559.3098144531251	809.5743408203127	-61.26134109497065	422.4462585449219	1318.114868164063	352.0004272460939	452.0995483398438	1439.52587890625	354.2338867187501	491.5499572753907	1440.322875976563	450.9228820800783	524.8844604492188	1434.34130859375	485.2320556640627	504.1080322265626	1101.926025390625	542.5406494140627	478.3486328125001	1093.311767578125	474.8460693359377	475.8387145996094	1068.291015625	509.6833801269533	668.03662109375	881.3948974609377	498.6355590820314	600.3721313476562	858.8399047851565	538.9388427734377	711.3883056640625	803.9302978515627	499.9944152832034	616.7434692382812	787.129821777344	541.5098266601565	
150	1.49	631.6098022460939	997.1633911132815	141.3833465576173	451.1876220703126	1013.74658203125	212.8781585693361	455.5328674316407	1019.209899902344	310.3484191894532	633.7871093750001	998.4079589843752	383.2671508789064	551.7728881835939	905.1914672851565	83.09159851074227	717.2130737304689	511.8757629394532	75.46466827392588	751.1698608398439	501.3921508789064	194.2204895019533	700.6986694335939	443.5503845214845	74.27513885498057	769.9257812500002	423.4887695312501	111.7197113037111	609.9441528320314	112.3758010864258	137.1461791992189	669.9384765625001	112.1144561767578	210.9594116210939	568.8164672851564	65.98650360107423	195.0247497558595	765.2379760742189	24.0420093536377	161.5629730224611	747.1319580078126	41.31174468994141	104.0577239990236	691.2565307617189	34.82735443115235	76.10630798339854	522.3419189453126	908.3428344726565	425.9697570800783	511.3939208984376	483.2474060058595	382.4203491210939	533.2543945312501	481.8801269531251	260.647918701172	491.3856506347657	416.3240966796876	382.1182250976564	561.4584350585939	403.3054809570314	328.1577758789064	422.4723205566407	77.92369079589845	311.426727294922	471.5456848144532	95.04811859130861	229.1471557617189	382.1796264648438	33.49080276489259	254.1204071044923	589.3093261718751	22.50727844238282	268.8003540039064	577.2310791015626	31.04154777526856	325.1327209472657	511.8429870605469	20.87729072570801	368.5833740234376	522.1819458007814	1515.954956054688	271.7353820800782	459.0239257812501	1287.673095703125	269.8179626464845	692.4293212890626	1282.75048828125	262.6077575683595	639.6931762695314	1433.952026367188	269.6988830566407	428.2130126953126	1317.759521484375	179.9473571777345	460.7625122070314	1444.150268554688	183.0185546875001	511.6385498046876	1451.725219726563	92.12933349609382	550.3731079101564	1453.45263671875	68.28814697265634	497.3799743652345	1132.423095703125	-31.96485519409174	467.061004638672	1114.421630859375	51.0865783691407	456.8545837402345	1100.4248046875	-9.291467666625923	615.7526855468751	885.3540649414065	3.931883335113602	575.2405395507814	878.7781982421877	-61.14539337158197	649.7207031250001	797.278259277344	-4.04430103301994	563.0448608398439	807.5986328125002	-62.50232315063471	433.6218261718751	1317.288696289063	351.9492797851564	463.5650939941407	1438.583129882813	354.0484924316407	502.9887390136719	1439.175659179688	450.8421020507814	536.3991088867188	1433.202758789063	485.1192016601564	517.5654296875	1100.776123046875	544.0987548828127	491.3897399902344	1091.69287109375	476.6132202148439	489.4140014648438	1066.516235351563	511.5708007812502	684.77685546875	883.1405029296877	499.0324096679689	617.9552612304688	859.3034667968752	539.7744140625002	729.7601928710938	806.5914306640627	500.2076110839846	635.7447509765625	787.9312744140627	542.3032836914065	
